<svg xmlns="http://www.w3.org/2000/svg" viewBox="0 0 54 33">
  <g fill="#38bdf8">
    <path d="M27 0c-7.2 0-11.9 3.6-14.1 10.8 3.3-3.6 7.2-4.9 11.7-4.1 2.5.7 4.3 2.7 6.3 4.9 3.3 3.5 7.1 7.6 15.4 7.6 7.2 0 11.9-3.6 14.1-10.8-3.3 3.6-7.2 4.9-11.7 4.1-2.5-.7-4.3-2.7-6.3-4.9C38.1 4.1 34.3 0 27 0zM13.5 16.5c-7.2 0-11.9 3.6-14.1 10.8 3.3-3.6 7.2-4.9 11.7-4.1 2.5.7 4.3 2.7 6.3 4.9 3.3 3.5 7.1 7.6 15.4 7.6 7.2 0 11.9-3.6 14.1-10.8-3.3 3.6-7.2 4.9-11.7 4.1-2.5-.7-4.3-2.7-6.3-4.9-3.3-3.5-7.1-7.6-15.4-7.6z"/>
  </g>
</svg>
