<svg xmlns="http://www.w3.org/2000/svg" viewBox="0 0 400 400">
  <rect width="400" height="400" fill="#3178c6"/>
  <path fill="#fff" d="M277.74 312.9c9.8-6.7 23.4-12.5 23.4-12.5s-38.7-16.8-29.2-72.1c5.5-32.4 18.1-61.3 18.1-61.3h-23.7s-17.8 39.8-24.8 75.4c-6.7 34.1-2.4 75.2 36.2 70.5zm-84.13-94.2c-27.3-13.7-64.8-9.4-64.8-9.4l-13.1 30.6 16.1 12.6s25.8-5.3 35.9-.8c10.1 4.5 11.5 16.6 11.5 16.6l-.6 71.7s-1.6 16.5 14.4 16.5 16.9-16.5 16.9-16.5l.1-72.8s2.8-32.6-16.4-48.5z"/>
  <path fill="#fff" d="M394.83 1.2v-.4h-56.6c.1.1.1.3.1.4 0 .1 0 .3-.1.4v56.6c-.1-.1-.3-.1-.4-.1-.1 0-.3 0-.4.1v-56.6c0-.1 0-.3.1-.4 0-.1-.1-.3-.1-.4h-56.6v.4c.1 0 .3 0 .4.1 0 .1 0 .3-.1.4v56.6c.1.1.3.1.4.1.1 0 .3 0 .4-.1V1.6c0-.1 0-.3-.1-.4.1-.1.1-.3.1-.4h56.6c0 .1 0 .3-.1.4 0 .1 0 .3.1.4v56.6c-.1.1-.3.1-.4.1-.1 0-.3 0-.4-.1V1.6c0-.1 0-.3.1-.4 0-.1-.1-.3-.1-.4h56.6z"/>
</svg>
